<svg width="1000" height="650" viewBox="0 0 264.584 171.977" xmlns="http://www.w3.org/2000/svg"><path style="fill:#fff;fill-opacity:1;stroke:none;stroke-width:.000944595;stroke-dasharray:none;stroke-opacity:1" d="M14.05 133.235a1.072 1.072 0 0 0-1.074 1.072v.938a.67.67 0 0 1-.67.67H8.686a1.072 1.072 0 0 0-1.072 1.074v16.624a1.072 1.072 0 0 0 1.072 1.071h3.618a.67.67 0 0 1 .671.67v.938a1.072 1.072 0 0 0 1.074 1.074h11.26a1.072 1.072 0 0 0 1.073-1.074v-.938a.67.67 0 0 1 .671-.67h3.618a1.072 1.072 0 0 0 1.074-1.071v-1.61a1.072 1.072 0 0 0-1.074-1.072h-3.217a1.072 1.072 0 0 0-1.072 1.072v2.012a.67.67 0 0 1-.67.67H13.648a.67.67 0 0 1-.672-.672v-17.427a.67.67 0 0 1 .672-.671h12.065a.67.67 0 0 1 .67.671v2.012a1.072 1.072 0 0 0 1.072 1.07h3.217a1.072 1.072 0 0 0 1.074-1.072v-1.605a1.072 1.072 0 0 0-1.074-1.074h-3.618a.67.67 0 0 1-.671-.67v-.94a1.072 1.072 0 0 0-1.072-1.072zm32.174 0a1.072 1.072 0 0 0-1.072 1.072v.938a.67.67 0 0 1-.671.67h-3.618a1.072 1.072 0 0 0-1.074 1.074v16.624a1.072 1.072 0 0 0 1.072 1.071h3.62a.67.67 0 0 1 .671.67v.938a1.072 1.072 0 0 0 1.072 1.074h11.261a1.072 1.072 0 0 0 1.074-1.074v-.938a.67.67 0 0 1 .67-.67h3.617a1.072 1.072 0 0 0 1.074-1.071v-16.624a1.072 1.072 0 0 0-1.072-1.074H59.23a.67.67 0 0 1-.671-.67v-.938a1.072 1.072 0 0 0-1.074-1.072zm26.813 0a1.072 1.072 0 0 0-1.072 1.072v19.306c0 .592.48 1.071 1.072 1.071h3.618a.67.67 0 0 1 .672.67v.938a1.072 1.072 0 0 0 1.071 1.074H89.66a1.072 1.072 0 0 0 1.074-1.074v-.938a.67.67 0 0 1 .671-.67h3.618a1.072 1.072 0 0 0 1.074-1.071v-19.306a1.072 1.072 0 0 0-1.074-1.072h-3.217a1.072 1.072 0 0 0-1.072 1.072v19.708a.67.67 0 0 1-.67.67H77.999a.67.67 0 0 1-.671-.672v-19.706a1.072 1.072 0 0 0-1.072-1.072zm32.176 0a1.072 1.072 0 0 0-1.074 1.072v21.985c0 .592.48 1.074 1.072 1.074h3.218a1.072 1.072 0 0 0 1.074-1.074v-21.985a1.072 1.072 0 0 0-1.074-1.072zm18.768 0a1.072 1.072 0 0 0-1.072 1.072v21.985a1.072 1.072 0 0 0 1.072 1.074h3.218a1.072 1.072 0 0 0 1.071-1.074v-21.985a1.072 1.072 0 0 0-1.071-1.072zm13.406 0a1.072 1.072 0 0 0-1.072 1.072v1.608h8.77a.67.67 0 0 1 .667.603v19.774a1.072 1.072 0 0 0 1.071 1.074h3.218a1.072 1.072 0 0 0 1.074-1.074v-19.739a.67.67 0 0 1 .67-.638h8.662v-1.608a1.072 1.072 0 0 0-1.074-1.072h-16.624zm37.536 0a1.072 1.072 0 0 0-1.07 1.072v.938a.67.67 0 0 1-.671.67h-3.619a1.072 1.072 0 0 0-1.073 1.074v16.624a1.072 1.072 0 0 0 1.072 1.071h3.62a.67.67 0 0 1 .671.67v.938a1.072 1.072 0 0 0 1.072 1.074h16.622a1.072 1.072 0 0 0 1.074-1.074v-1.608h-18.099a.67.67 0 0 1-.669-.67v-4.021a.67.67 0 0 1 .67-.672h11.663a1.072 1.072 0 0 0 1.073-1.072v-3.217a1.072 1.072 0 0 0-1.073-1.072h-11.664a.67.67 0 0 1-.669-.672v-6.702a.67.67 0 0 1 .67-.671h18.098v-1.608a1.072 1.072 0 0 0-1.072-1.072h-11.265zm26.815 0a1.072 1.072 0 0 0-1.074 1.072v21.985a1.072 1.072 0 0 0 1.074 1.074h3.217a1.072 1.072 0 0 0 1.072-1.074v-8.981a.67.67 0 0 1 .672-.672h12.065a.67.67 0 0 1 .67.672v8.981a1.072 1.072 0 0 0 1.071 1.074h3.218a1.072 1.072 0 0 0 1.074-1.074v-8.579a1.072 1.072 0 0 0-1.074-1.074h-3.618a.67.67 0 0 1-.671-.669v-1.34a.67.67 0 0 1 .669-.67h3.62a1.072 1.072 0 0 0 1.074-1.074v-5.896a1.072 1.072 0 0 0-1.074-1.073h-3.618a.67.67 0 0 1-.671-.67v-.94a1.072 1.072 0 0 0-1.072-1.072zm37.535 0a1.072 1.072 0 0 0-1.07 1.072v.938a.67.67 0 0 1-.671.67h-3.618a1.072 1.072 0 0 0-1.074 1.074v5.897a1.072 1.072 0 0 0 1.072 1.074h3.62a.67.67 0 0 1 .671.67v.938a1.072 1.072 0 0 0 1.072 1.071h11.663a.67.67 0 0 1 .67.672v6.702a.67.67 0 0 1-.67.671h-12.065a.67.67 0 0 1-.67-.67v-2.01a1.072 1.072 0 0 0-1.074-1.071h-3.217a1.072 1.072 0 0 0-1.072 1.072v1.61a1.072 1.072 0 0 0 1.072 1.071h3.62a.67.67 0 0 1 .671.67v.938a1.072 1.072 0 0 0 1.072 1.074h11.26a1.072 1.072 0 0 0 1.073-1.074v-.938a.67.67 0 0 1 .671-.67h3.618a1.072 1.072 0 0 0 1.074-1.072v-5.905a1.072 1.072 0 0 0-1.072-1.071h-3.62a.67.67 0 0 1-.671-.67v-.938a1.072 1.072 0 0 0-1.072-1.072h-11.663a.67.67 0 0 1-.67-.672v-6.7a.67.67 0 0 1 .67-.671h12.065a.67.67 0 0 1 .67.671v2.012a1.072 1.072 0 0 0 1.074 1.07h3.217a1.072 1.072 0 0 0 1.072-1.072v-1.606a1.072 1.072 0 0 0-1.072-1.073h-3.62a.67.67 0 0 1-.671-.67v-.94a1.072 1.072 0 0 0-1.072-1.072zm-193.45 2.68H57.89a.67.67 0 0 1 .672.671v17.427a.67.67 0 0 1-.672.671H45.824a.67.67 0 0 1-.67-.67v-17.428a.67.67 0 0 1 .67-.671zm160.877 0h12.066a.67.67 0 0 1 .67.671v6.702a.67.67 0 0 1-.67.672H206.7a.67.67 0 0 1-.67-.672v-6.702a.67.67 0 0 1 .67-.671zm-93.844 3.463c-.31 0-.616.136-.826.39l-2.042 2.49a1.072 1.072 0 0 0 .15 1.508l8.702 7.146c.459.375 1.134.31 1.51-.15l2.042-2.486a1.072 1.072 0 0 0-.149-1.509l-8.706-7.145a1.068 1.068 0 0 0-.683-.244zm-64.343 0c-.31 0-.615.136-.826.39l-2.041 2.49a1.072 1.072 0 0 0 .149 1.508l8.705 7.146c.456.375 1.131.31 1.509-.15l2.041-2.486a1.072 1.072 0 0 0-.149-1.509l-8.707-7.145a1.068 1.068 0 0 0-.683-.244z"/><path style="fill:none;stroke:#fff;stroke-width:1.50911;stroke-linecap:round;stroke-miterlimit:4;stroke-dasharray:none;stroke-opacity:1" d="M117.066 106.166a7.28 7.28 0 0 0 3.98-.388m-20.64-2.662 16.66 3.05m-19.147-6.034a3.033 3.033 0 0 0 2.487 2.984M97.92 67.428v32.704m3.552-36.893a4.247 4.247 0 0 0-3.552 4.19m68.745.363a4.247 4.247 0 0 0-1.87-3.52m1.87 3.52v30.993m-1.723 3.416a4.247 4.247 0 0 0 1.724-3.416m-1.724 3.416-11.271 8.329m-5.638 1.306a7.28 7.28 0 0 0 5.638-1.306m-30.26-3.202 24.622 4.508m-27.606-8.089a3.64 3.64 0 0 0 2.985 3.58M97.919 58.82a4.247 4.247 0 0 0 4.942 4.19M97.92 38.601V58.82m1.507-22.462a2.427 2.427 0 0 0-1.507 2.245m1.507-2.245 9.171-3.757m3.33.047a4.247 4.247 0 0 0-3.33-.047m4.827-1.978a2.427 2.427 0 0 0-1.507 2.246m1.507-2.246 12.3-5.04m4.269.619a4.247 4.247 0 0 0-4.268-.618m-2.255 34.005a3.64 3.64 0 0 0-3.044 3.59m.62-2.03a7.28 7.28 0 0 0-4.049-.486m-15.526 2.577 15.526-2.577m-5.08-27.794v23.627m20.684-33.73a4.247 4.247 0 0 0-2.637 3.93m2.637-3.93 14.093-5.773m7.516 2.516a6.067 6.067 0 0 0-7.516-2.516m7.516 2.516 11.306 19.034m1.148 4.183a8.19 8.19 0 0 0-1.148-4.183m1.148 4.183V61.47m-1.87 2.801a3.033 3.033 0 0 0 1.87-2.801m-13.187-4.841 11.317 7.642m-11.317-7.642a7.28 7.28 0 0 0-5.266-1.149m0 0-24.74 4.107m6.493-6.088a4.247 4.247 0 0 0 4.942 4.19m-4.942-30.995V53.5m-18.047 2.995a4.247 4.247 0 0 0 4.942 4.19m3.567 2.494v40.568"/><path style="fill:none;stroke:#fff;stroke-width:.659989;stroke-linecap:round;stroke-miterlimit:4;stroke-dasharray:none;stroke-opacity:1" d="M147.983 64.003v40.19m6.492-1.138V64.858m-6.585 43.635-22.307-4.084m2.427-41.395 20.388-2.75m7.09 1.464a10.92 10.92 0 0 0-7.09-1.465m7.09 1.465 7.84 4.717m0 35.087-8.338 5.51m-7.1 1.45a9.707 9.707 0 0 0 7.1-1.45m-38.772-39.611v32.787m-1.705 2.78a16.726 16.726 0 0 0 6.217-.036m-18.26-2.168 12.043 2.205m-9.01-37.172 10.715-1.472m4.512.22a12.252 12.252 0 0 0-4.512-.22m31.765-41.427V46.17m6.492 1.853V27.01m8.853 11.34-9.487-15.594m1.338 28.791 8.149 7.012m-8.149-7.012a9.765 9.765 0 0 0-7.814-1.747m-12.85 2.64 12.85-2.64m-.958-29.524L136.334 24.3m17.507-1.543a6.067 6.067 0 0 0-7.434-2.48m-21.764 34.191-8.782 1.804m1.82-24.52 7.197-2.875m5.39.442a6.067 6.067 0 0 0-5.39-.442m.436 2.683v18.987m5.048 4.282a10.92 10.92 0 0 0-5.72-.36m-16.83 3.456-6.556 1.347m1.82-21.686 4.533-1.81m4.612.26a5.46 5.46 0 0 0-4.612-.26m.638 2.12v16.713m4.098 3.346a10.92 10.92 0 0 0-4.533-.03"/></svg>